# xmcd CD database file
#
# Track frame offsets:
#	150
#	37527
#	70620
#	94727
#	125097
#	148827
#
# Disc length: 2510 seconds
#
# Revision: 0
# Processed by: cddbd v1.4PL0 Copyright (c) Steve Scherf et al.
# Submitted via: CDex 1.51
#
DISCID=4b09cc06
DTITLE=Bobby Lyle Trio - Night breeze
DYEAR=1987
DGENRE=Jazz
TTITLE0=Spain
TTITLE1=A child is born
TTITLE2=The shadow in your smile
TTITLE3=Night breeze
TTITLE4=naima
TTITLE5=Night life
EXTD=YEAR: 1987
EXTT0=
EXTT1=
EXTT2=
EXTT3=
EXTT4=
EXTT5=
PLAYORDER=
